<?xml version="1.0" encoding="us-ascii" standalone="no"?><svg xmlns="http://www.w3.org/2000/svg" xmlns:xlink="http://www.w3.org/1999/xlink" contentStyleType="text/css" height="1546px" preserveAspectRatio="none" style="width:1731px;height:1546px;background:#FFFFFF;" version="1.1" viewBox="0 0 1731 1546" width="1731px" zoomAndPan="magnify"><defs/><g><!--class Menu--><g id="elem_Menu"><rect codeLine="2" fill="#FFFFE0" height="259.3125" id="Menu" rx="2.5" ry="2.5" style="stroke:#181818;stroke-width:0.5;" width="149" x="946.77" y="7"/><ellipse cx="999.02" cy="23" fill="#A9DCDF" rx="11" ry="11" style="stroke:#181818;stroke-width:1.0;"/><path d="M1001.2075,24.7656 L997.0669,24.7656 L996.645,25.7969 L997.0669,25.7969 Q997.6763,25.7969 997.9419,26.0313 Q998.2075,26.2656 998.2075,26.6563 Q998.2075,27.0313 997.9419,27.2656 Q997.6763,27.5 997.0669,27.5 L994.77,27.5 Q994.1606,27.5 993.9106,27.2656 Q993.645,27.0313 993.645,26.6406 Q993.645,26.2656 993.9263,26.0313 Q994.1919,25.7813 994.8169,25.7969 L997.4888,19.1406 L996.3794,19.1406 Q995.77,19.1406 995.5044,18.9063 Q995.2388,18.6719 995.2388,18.2813 Q995.2388,17.9063 995.5044,17.6719 Q995.77,17.4375 996.3794,17.4375 L1000.0513,17.4375 L1003.4419,25.7969 Q1004.0356,25.7969 1004.2231,25.9375 Q1004.6138,26.2031 1004.6138,26.6563 Q1004.6138,27.0313 1004.3481,27.2656 Q1004.0981,27.5 1003.4888,27.5 L1001.1919,27.5 Q1000.5825,27.5 1000.3169,27.2656 Q1000.0513,27.0313 1000.0513,26.6406 Q1000.0513,26.2656 1000.3169,26.0313 Q1000.5825,25.7969 1001.1919,25.7969 L1001.6138,25.7969 L1001.2075,24.7656 Z M1000.4888,23.0625 L999.1294,19.6875 L997.7544,23.0625 L1000.4888,23.0625 Z " fill="#000000"/><text fill="#000000" font-family="sans-serif" font-size="14" font-style="italic" lengthAdjust="spacing" textLength="36" x="1019.52" y="28.7285">Menu</text><line style="stroke:#181818;stroke-width:0.5;" x1="947.77" x2="1094.77" y1="39" y2="39"/><rect fill="none" height="6" style="stroke:#C82930;stroke-width:1.0;" width="6" x="954.77" y="50.3047"/><text fill="#000000" font-family="sans-serif" font-size="14" lengthAdjust="spacing" textLength="22" x="966.77" y="57.5332">title</text><rect fill="none" height="6" style="stroke:#C82930;stroke-width:1.0;" width="6" x="954.77" y="67.9141"/><text fill="#000000" font-family="sans-serif" font-size="14" lengthAdjust="spacing" textLength="46" x="966.77" y="75.1426">options</text><line style="stroke:#181818;stroke-width:0.5;" x1="947.77" x2="1094.77" y1="82.2188" y2="82.2188"/><ellipse cx="957.77" cy="96.5234" fill="#84BE84" rx="3" ry="3" style="stroke:#038048;stroke-width:1.0;"/><text fill="#000000" font-family="sans-serif" font-size="14" lengthAdjust="spacing" textLength="103" x="966.77" y="100.752">constructor(title)</text><ellipse cx="957.77" cy="114.1328" fill="#84BE84" rx="3" ry="3" style="stroke:#038048;stroke-width:1.0;"/><text fill="#000000" font-family="sans-serif" font-size="14" lengthAdjust="spacing" textLength="57" x="966.77" y="118.3613">interact()</text><polygon fill="#FFFF44" points="957.77,126.7422,961.77,130.7422,957.77,134.7422,953.77,130.7422" style="stroke:#B38D22;stroke-width:1.0;"/><text fill="#000000" font-family="sans-serif" font-size="14" font-style="italic" lengthAdjust="spacing" textLength="102" x="966.77" y="135.9707">setupOptions_()</text><polygon fill="#FFFF44" points="957.77,144.3516,961.77,148.3516,957.77,152.3516,953.77,148.3516" style="stroke:#B38D22;stroke-width:1.0;"/><text fill="#000000" font-family="sans-serif" font-size="14" lengthAdjust="spacing" textLength="123" x="966.77" y="153.5801">addOption_(option)</text><polygon fill="#FFFF44" points="957.77,161.9609,961.77,165.9609,957.77,169.9609,953.77,165.9609" style="stroke:#B38D22;stroke-width:1.0;"/><text fill="#000000" font-family="sans-serif" font-size="14" lengthAdjust="spacing" textLength="109" x="966.77" y="171.1895">executeOption_()</text><polygon fill="#FFFF44" points="957.77,179.5703,961.77,183.5703,957.77,187.5703,953.77,183.5703" style="stroke:#B38D22;stroke-width:1.0;"/><text fill="#000000" font-family="sans-serif" font-size="14" lengthAdjust="spacing" textLength="122" x="966.77" y="188.7988">hasOption_(option)</text><polygon fill="#FFFF44" points="957.77,197.1797,961.77,201.1797,957.77,205.1797,953.77,201.1797" style="stroke:#B38D22;stroke-width:1.0;"/><text fill="#000000" font-family="sans-serif" font-size="14" lengthAdjust="spacing" textLength="98" x="966.77" y="206.4082">clearOptions_()</text><rect fill="#F24D5C" height="6" style="stroke:#C82930;stroke-width:1.0;" width="6" x="954.77" y="216.7891"/><text fill="#000000" font-family="sans-serif" font-size="14" lengthAdjust="spacing" textLength="39" x="966.77" y="224.0176">write()</text><rect fill="#F24D5C" height="6" style="stroke:#C82930;stroke-width:1.0;" width="6" x="954.77" y="234.3984"/><text fill="#000000" font-family="sans-serif" font-size="14" lengthAdjust="spacing" textLength="81" x="966.77" y="241.627">readOption()</text><polygon fill="#FFFF44" points="957.77,250.0078,961.77,254.0078,957.77,258.0078,953.77,254.0078" style="stroke:#B38D22;stroke-width:1.0;"/><text fill="#000000" font-family="sans-serif" font-size="14" lengthAdjust="spacing" textLength="84" x="966.77" y="259.2363">writeTrace_()</text></g><!--class Option--><g id="elem_Option"><rect codeLine="53" fill="#FFB6C1" height="118.4375" id="Option" rx="2.5" ry="2.5" style="stroke:#181818;stroke-width:0.5;" width="129" x="840.77" y="335"/><ellipse cx="880.52" cy="351" fill="#A9DCDF" rx="11" ry="11" style="stroke:#181818;stroke-width:1.0;"/><path d="M882.7075,352.7656 L878.5669,352.7656 L878.145,353.7969 L878.5669,353.7969 Q879.1763,353.7969 879.4419,354.0313 Q879.7075,354.2656 879.7075,354.6563 Q879.7075,355.0313 879.4419,355.2656 Q879.1763,355.5 878.5669,355.5 L876.27,355.5 Q875.6606,355.5 875.4106,355.2656 Q875.145,355.0313 875.145,354.6406 Q875.145,354.2656 875.4263,354.0313 Q875.6919,353.7813 876.3169,353.7969 L878.9888,347.1406 L877.8794,347.1406 Q877.27,347.1406 877.0044,346.9063 Q876.7388,346.6719 876.7388,346.2813 Q876.7388,345.9063 877.0044,345.6719 Q877.27,345.4375 877.8794,345.4375 L881.5513,345.4375 L884.9419,353.7969 Q885.5356,353.7969 885.7231,353.9375 Q886.1138,354.2031 886.1138,354.6563 Q886.1138,355.0313 885.8481,355.2656 Q885.5981,355.5 884.9888,355.5 L882.6919,355.5 Q882.0825,355.5 881.8169,355.2656 Q881.5513,355.0313 881.5513,354.6406 Q881.5513,354.2656 881.8169,354.0313 Q882.0825,353.7969 882.6919,353.7969 L883.1138,353.7969 L882.7075,352.7656 Z M881.9888,351.0625 L880.6294,347.6875 L879.2544,351.0625 L881.9888,351.0625 Z " fill="#000000"/><text fill="#000000" font-family="sans-serif" font-size="14" font-style="italic" lengthAdjust="spacing" textLength="42" x="900.02" y="356.7285">Option</text><line style="stroke:#181818;stroke-width:0.5;" x1="841.77" x2="968.77" y1="367" y2="367"/><rect fill="none" height="6" style="stroke:#C82930;stroke-width:1.0;" width="6" x="848.77" y="378.3047"/><text fill="#000000" font-family="sans-serif" font-size="14" lengthAdjust="spacing" textLength="22" x="860.77" y="385.5332">title</text><line style="stroke:#181818;stroke-width:0.5;" x1="841.77" x2="968.77" y1="392.6094" y2="392.6094"/><ellipse cx="851.77" cy="406.9141" fill="#84BE84" rx="3" ry="3" style="stroke:#038048;stroke-width:1.0;"/><text fill="#000000" font-family="sans-serif" font-size="14" lengthAdjust="spacing" textLength="103" x="860.77" y="411.1426">constructor(title)</text><ellipse cx="851.77" cy="424.5234" fill="#84BE84" rx="3" ry="3" style="stroke:#038048;stroke-width:1.0;"/><text fill="#000000" font-family="sans-serif" font-size="14" font-style="italic" lengthAdjust="spacing" textLength="57" x="860.77" y="428.752">interact()</text><ellipse cx="851.77" cy="442.1328" fill="#84BE84" rx="3" ry="3" style="stroke:#038048;stroke-width:1.0;"/><text fill="#000000" font-family="sans-serif" font-size="14" lengthAdjust="spacing" textLength="88" x="860.77" y="446.3613">write(position)</text></g><!--class Console--><g id="elem_Console"><rect fill="#F1F1F1" height="48" id="Console" rx="2.5" ry="2.5" style="stroke:#181818;stroke-width:0.5;" width="84" x="697.27" y="557"/><ellipse cx="712.27" cy="573" fill="#ADD1B2" rx="11" ry="11" style="stroke:#181818;stroke-width:1.0;"/><path d="M715.0356,568.875 Q715.1919,568.6563 715.3794,568.5469 Q715.5669,568.4375 715.7856,568.4375 Q716.1606,568.4375 716.395,568.7031 Q716.6294,568.9531 716.6294,569.5625 L716.6294,571.0156 Q716.6294,571.625 716.395,571.8906 Q716.1606,572.1563 715.7856,572.1563 Q715.4419,572.1563 715.2388,571.9531 Q715.0356,571.7656 714.9263,571.25 Q714.8794,570.8906 714.6919,570.7031 Q714.3638,570.3281 713.7544,570.1094 Q713.145,569.8906 712.52,569.8906 Q711.7544,569.8906 711.1138,570.2188 Q710.4888,570.5469 709.9888,571.2969 Q709.5044,572.0469 709.5044,573.0781 L709.5044,574.1719 Q709.5044,575.4063 710.395,576.2344 Q711.2856,577.0469 712.8794,577.0469 Q713.8169,577.0469 714.4731,576.7969 Q714.8638,576.6406 715.2856,576.2031 Q715.5513,575.9375 715.6919,575.8594 Q715.8481,575.7813 716.0513,575.7813 Q716.3794,575.7813 716.6294,576.0469 Q716.895,576.2969 716.895,576.6406 Q716.895,576.9844 716.5513,577.3906 Q716.0513,577.9688 715.2544,578.2969 Q714.1763,578.75 712.8794,578.75 Q711.3638,578.75 710.1606,578.125 Q709.1763,577.625 708.4888,576.5625 Q707.8013,575.4844 707.8013,574.2031 L707.8013,573.0469 Q707.8013,571.7188 708.4106,570.5781 Q709.0356,569.4219 710.1294,568.8125 Q711.2231,568.1875 712.4575,568.1875 Q713.1919,568.1875 713.8325,568.3594 Q714.4888,568.5156 715.0356,568.875 Z " fill="#000000"/><text fill="#000000" font-family="sans-serif" font-size="14" lengthAdjust="spacing" textLength="52" x="726.27" y="578.7285">Console</text><line style="stroke:#181818;stroke-width:0.5;" x1="698.27" x2="780.27" y1="589" y2="589"/><line style="stroke:#181818;stroke-width:0.5;" x1="698.27" x2="780.27" y1="597" y2="597"/></g><!--class QuitMenu--><g id="elem_QuitMenu"><rect codeLine="20" fill="#FFFFE0" height="136.0469" id="QuitMenu" rx="2.5" ry="2.5" style="stroke:#181818;stroke-width:0.5;" width="167" x="1029.77" y="326"/><ellipse cx="1078.02" cy="342" fill="#A9DCDF" rx="11" ry="11" style="stroke:#181818;stroke-width:1.0;"/><path d="M1080.2075,343.7656 L1076.0669,343.7656 L1075.645,344.7969 L1076.0669,344.7969 Q1076.6763,344.7969 1076.9419,345.0313 Q1077.2075,345.2656 1077.2075,345.6563 Q1077.2075,346.0313 1076.9419,346.2656 Q1076.6763,346.5 1076.0669,346.5 L1073.77,346.5 Q1073.1606,346.5 1072.9106,346.2656 Q1072.645,346.0313 1072.645,345.6406 Q1072.645,345.2656 1072.9263,345.0313 Q1073.1919,344.7813 1073.8169,344.7969 L1076.4888,338.1406 L1075.3794,338.1406 Q1074.77,338.1406 1074.5044,337.9063 Q1074.2388,337.6719 1074.2388,337.2813 Q1074.2388,336.9063 1074.5044,336.6719 Q1074.77,336.4375 1075.3794,336.4375 L1079.0513,336.4375 L1082.4419,344.7969 Q1083.0356,344.7969 1083.2231,344.9375 Q1083.6138,345.2031 1083.6138,345.6563 Q1083.6138,346.0313 1083.3481,346.2656 Q1083.0981,346.5 1082.4888,346.5 L1080.1919,346.5 Q1079.5825,346.5 1079.3169,346.2656 Q1079.0513,346.0313 1079.0513,345.6406 Q1079.0513,345.2656 1079.3169,345.0313 Q1079.5825,344.7969 1080.1919,344.7969 L1080.6138,344.7969 L1080.2075,343.7656 Z M1079.4888,342.0625 L1078.1294,338.6875 L1076.7544,342.0625 L1079.4888,342.0625 Z " fill="#000000"/><text fill="#000000" font-family="sans-serif" font-size="14" font-style="italic" lengthAdjust="spacing" textLength="62" x="1098.52" y="347.7285">QuitMenu</text><line style="stroke:#181818;stroke-width:0.5;" x1="1030.77" x2="1195.77" y1="358" y2="358"/><rect fill="none" height="6" style="stroke:#C82930;stroke-width:1.0;" width="6" x="1037.77" y="369.3047"/><text fill="#000000" font-family="sans-serif" font-size="14" lengthAdjust="spacing" textLength="65" x="1049.77" y="376.5332">quitOption</text><line style="stroke:#181818;stroke-width:0.5;" x1="1030.77" x2="1195.77" y1="383.6094" y2="383.6094"/><ellipse cx="1040.77" cy="397.9141" fill="#84BE84" rx="3" ry="3" style="stroke:#038048;stroke-width:1.0;"/><text fill="#000000" font-family="sans-serif" font-size="14" lengthAdjust="spacing" textLength="103" x="1049.77" y="402.1426">constructor(title)</text><polygon fill="#FFFF44" points="1040.77,410.5234,1044.77,414.5234,1040.77,418.5234,1036.77,414.5234" style="stroke:#B38D22;stroke-width:1.0;"/><text fill="#000000" font-family="sans-serif" font-size="14" lengthAdjust="spacing" textLength="102" x="1049.77" y="419.752">setupOptions_()</text><polygon fill="#FFFF44" points="1040.77,428.1328,1044.77,432.1328,1040.77,436.1328,1036.77,432.1328" style="stroke:#B38D22;stroke-width:1.0;"/><text fill="#000000" font-family="sans-serif" font-size="14" font-style="italic" lengthAdjust="spacing" textLength="141" x="1049.77" y="437.3613">setupModelOptions_()</text><polygon fill="#FFFF44" points="1040.77,445.7422,1044.77,449.7422,1040.77,453.7422,1036.77,449.7422" style="stroke:#B38D22;stroke-width:1.0;"/><text fill="#000000" font-family="sans-serif" font-size="14" lengthAdjust="spacing" textLength="112" x="1049.77" y="454.9707">isQuitExecuted_()</text></g><!--class QuitOption--><g id="elem_QuitOption"><rect codeLine="62" fill="#FFA07A" height="118.4375" id="QuitOption" rx="2.5" ry="2.5" style="stroke:#181818;stroke-width:0.5;" width="130" x="887.27" y="522"/><ellipse cx="915.77" cy="538" fill="#ADD1B2" rx="11" ry="11" style="stroke:#181818;stroke-width:1.0;"/><path d="M918.5356,533.875 Q918.6919,533.6563 918.8794,533.5469 Q919.0669,533.4375 919.2856,533.4375 Q919.6606,533.4375 919.895,533.7031 Q920.1294,533.9531 920.1294,534.5625 L920.1294,536.0156 Q920.1294,536.625 919.895,536.8906 Q919.6606,537.1563 919.2856,537.1563 Q918.9419,537.1563 918.7388,536.9531 Q918.5356,536.7656 918.4263,536.25 Q918.3794,535.8906 918.1919,535.7031 Q917.8638,535.3281 917.2544,535.1094 Q916.645,534.8906 916.02,534.8906 Q915.2544,534.8906 914.6138,535.2188 Q913.9888,535.5469 913.4888,536.2969 Q913.0044,537.0469 913.0044,538.0781 L913.0044,539.1719 Q913.0044,540.4063 913.895,541.2344 Q914.7856,542.0469 916.3794,542.0469 Q917.3169,542.0469 917.9731,541.7969 Q918.3638,541.6406 918.7856,541.2031 Q919.0513,540.9375 919.1919,540.8594 Q919.3481,540.7813 919.5513,540.7813 Q919.8794,540.7813 920.1294,541.0469 Q920.395,541.2969 920.395,541.6406 Q920.395,541.9844 920.0513,542.3906 Q919.5513,542.9688 918.7544,543.2969 Q917.6763,543.75 916.3794,543.75 Q914.8638,543.75 913.6606,543.125 Q912.6763,542.625 911.9888,541.5625 Q911.3013,540.4844 911.3013,539.2031 L911.3013,538.0469 Q911.3013,536.7188 911.9106,535.5781 Q912.5356,534.4219 913.6294,533.8125 Q914.7231,533.1875 915.9575,533.1875 Q916.6919,533.1875 917.3325,533.3594 Q917.9888,533.5156 918.5356,533.875 Z " fill="#000000"/><text fill="#000000" font-family="sans-serif" font-size="14" lengthAdjust="spacing" textLength="68" x="932.77" y="543.7285">QuitOption</text><line style="stroke:#181818;stroke-width:0.5;" x1="888.27" x2="1016.27" y1="554" y2="554"/><rect fill="none" height="6" style="stroke:#C82930;stroke-width:1.0;" width="6" x="895.27" y="565.3047"/><text fill="#000000" font-family="sans-serif" font-size="14" lengthAdjust="spacing" textLength="57" x="907.27" y="572.5332">executed</text><line style="stroke:#181818;stroke-width:0.5;" x1="888.27" x2="1016.27" y1="579.6094" y2="579.6094"/><ellipse cx="898.27" cy="593.9141" fill="#84BE84" rx="3" ry="3" style="stroke:#038048;stroke-width:1.0;"/><text fill="#000000" font-family="sans-serif" font-size="14" lengthAdjust="spacing" textLength="81" x="907.27" y="598.1426">constructor()</text><ellipse cx="898.27" cy="611.5234" fill="#84BE84" rx="3" ry="3" style="stroke:#038048;stroke-width:1.0;"/><text fill="#000000" font-family="sans-serif" font-size="14" lengthAdjust="spacing" textLength="57" x="907.27" y="615.752">interact()</text><ellipse cx="898.27" cy="629.1328" fill="#84BE84" rx="3" ry="3" style="stroke:#038048;stroke-width:1.0;"/><text fill="#000000" font-family="sans-serif" font-size="14" lengthAdjust="spacing" textLength="104" x="907.27" y="633.3613">isQuitExecuted()</text></g><!--class DynamicIterativeMenu--><g id="elem_DynamicIterativeMenu"><rect codeLine="32" fill="#FFFFE0" height="118.4375" id="DynamicIterativeMenu" rx="2.5" ry="2.5" style="stroke:#181818;stroke-width:0.5;" width="172" x="1052.27" y="522"/><ellipse cx="1067.27" cy="538" fill="#A9DCDF" rx="11" ry="11" style="stroke:#181818;stroke-width:1.0;"/><path d="M1069.4575,539.7656 L1065.3169,539.7656 L1064.895,540.7969 L1065.3169,540.7969 Q1065.9263,540.7969 1066.1919,541.0313 Q1066.4575,541.2656 1066.4575,541.6563 Q1066.4575,542.0313 1066.1919,542.2656 Q1065.9263,542.5 1065.3169,542.5 L1063.02,542.5 Q1062.4106,542.5 1062.1606,542.2656 Q1061.895,542.0313 1061.895,541.6406 Q1061.895,541.2656 1062.1763,541.0313 Q1062.4419,540.7813 1063.0669,540.7969 L1065.7388,534.1406 L1064.6294,534.1406 Q1064.02,534.1406 1063.7544,533.9063 Q1063.4888,533.6719 1063.4888,533.2813 Q1063.4888,532.9063 1063.7544,532.6719 Q1064.02,532.4375 1064.6294,532.4375 L1068.3013,532.4375 L1071.6919,540.7969 Q1072.2856,540.7969 1072.4731,540.9375 Q1072.8638,541.2031 1072.8638,541.6563 Q1072.8638,542.0313 1072.5981,542.2656 Q1072.3481,542.5 1071.7388,542.5 L1069.4419,542.5 Q1068.8325,542.5 1068.5669,542.2656 Q1068.3013,542.0313 1068.3013,541.6406 Q1068.3013,541.2656 1068.5669,541.0313 Q1068.8325,540.7969 1069.4419,540.7969 L1069.8638,540.7969 L1069.4575,539.7656 Z M1068.7388,538.0625 L1067.3794,534.6875 L1066.0044,538.0625 L1068.7388,538.0625 Z " fill="#000000"/><text fill="#000000" font-family="sans-serif" font-size="14" font-style="italic" lengthAdjust="spacing" textLength="140" x="1081.27" y="543.7285">DynamicIterativeMenu</text><line style="stroke:#181818;stroke-width:0.5;" x1="1053.27" x2="1223.27" y1="554" y2="554"/><line style="stroke:#181818;stroke-width:0.5;" x1="1053.27" x2="1223.27" y1="562" y2="562"/><ellipse cx="1063.27" cy="576.3047" fill="#84BE84" rx="3" ry="3" style="stroke:#038048;stroke-width:1.0;"/><text fill="#000000" font-family="sans-serif" font-size="14" lengthAdjust="spacing" textLength="103" x="1072.27" y="580.5332">constructor(title)</text><polygon fill="#FFFF44" points="1063.27,588.9141,1067.27,592.9141,1063.27,596.9141,1059.27,592.9141" style="stroke:#B38D22;stroke-width:1.0;"/><text fill="#000000" font-family="sans-serif" font-size="14" lengthAdjust="spacing" textLength="57" x="1072.27" y="598.1426">interact()</text><polygon fill="#FFFF44" points="1063.27,606.5234,1067.27,610.5234,1063.27,614.5234,1059.27,610.5234" style="stroke:#B38D22;stroke-width:1.0;"/><text fill="#000000" font-family="sans-serif" font-size="14" lengthAdjust="spacing" textLength="118" x="1072.27" y="615.752">executeIteration_()</text><polygon fill="#FFFF44" points="1063.27,624.1328,1067.27,628.1328,1063.27,632.1328,1059.27,628.1328" style="stroke:#B38D22;stroke-width:1.0;"/><text fill="#000000" font-family="sans-serif" font-size="14" font-style="italic" lengthAdjust="spacing" textLength="141" x="1072.27" y="633.3613">setupModelOptions_()</text></g><!--class StaticIterativeMenu--><g id="elem_StaticIterativeMenu"><rect codeLine="42" fill="#FFFFE0" height="118.4375" id="StaticIterativeMenu" rx="2.5" ry="2.5" style="stroke:#181818;stroke-width:0.5;" width="167" x="1054.77" y="700"/><ellipse cx="1076.07" cy="716" fill="#A9DCDF" rx="11" ry="11" style="stroke:#181818;stroke-width:1.0;"/><path d="M1078.2575,717.7656 L1074.1169,717.7656 L1073.695,718.7969 L1074.1169,718.7969 Q1074.7263,718.7969 1074.9919,719.0313 Q1075.2575,719.2656 1075.2575,719.6563 Q1075.2575,720.0313 1074.9919,720.2656 Q1074.7263,720.5 1074.1169,720.5 L1071.82,720.5 Q1071.2106,720.5 1070.9606,720.2656 Q1070.695,720.0313 1070.695,719.6406 Q1070.695,719.2656 1070.9763,719.0313 Q1071.2419,718.7813 1071.8669,718.7969 L1074.5388,712.1406 L1073.4294,712.1406 Q1072.82,712.1406 1072.5544,711.9063 Q1072.2888,711.6719 1072.2888,711.2813 Q1072.2888,710.9063 1072.5544,710.6719 Q1072.82,710.4375 1073.4294,710.4375 L1077.1013,710.4375 L1080.4919,718.7969 Q1081.0856,718.7969 1081.2731,718.9375 Q1081.6638,719.2031 1081.6638,719.6563 Q1081.6638,720.0313 1081.3981,720.2656 Q1081.1481,720.5 1080.5388,720.5 L1078.2419,720.5 Q1077.6325,720.5 1077.3669,720.2656 Q1077.1013,720.0313 1077.1013,719.6406 Q1077.1013,719.2656 1077.3669,719.0313 Q1077.6325,718.7969 1078.2419,718.7969 L1078.6638,718.7969 L1078.2575,717.7656 Z M1077.5388,716.0625 L1076.1794,712.6875 L1074.8044,716.0625 L1077.5388,716.0625 Z " fill="#000000"/><text fill="#000000" font-family="sans-serif" font-size="14" font-style="italic" lengthAdjust="spacing" textLength="121" x="1091.47" y="721.7285">StaticIterativeMenu</text><line style="stroke:#181818;stroke-width:0.5;" x1="1055.77" x2="1220.77" y1="732" y2="732"/><line style="stroke:#181818;stroke-width:0.5;" x1="1055.77" x2="1220.77" y1="740" y2="740"/><ellipse cx="1065.77" cy="754.3047" fill="#84BE84" rx="3" ry="3" style="stroke:#038048;stroke-width:1.0;"/><text fill="#000000" font-family="sans-serif" font-size="14" lengthAdjust="spacing" textLength="103" x="1074.77" y="758.5332">constructor(title)</text><polygon fill="#FFFF44" points="1065.77,766.9141,1069.77,770.9141,1065.77,774.9141,1061.77,770.9141" style="stroke:#B38D22;stroke-width:1.0;"/><text fill="#000000" font-family="sans-serif" font-size="14" lengthAdjust="spacing" textLength="57" x="1074.77" y="776.1426">interact()</text><polygon fill="#FFFF44" points="1065.77,784.5234,1069.77,788.5234,1065.77,792.5234,1061.77,788.5234" style="stroke:#B38D22;stroke-width:1.0;"/><text fill="#000000" font-family="sans-serif" font-size="14" lengthAdjust="spacing" textLength="118" x="1074.77" y="793.752">executeIteration_()</text><polygon fill="#FFFF44" points="1065.77,802.1328,1069.77,806.1328,1065.77,810.1328,1061.77,806.1328" style="stroke:#B38D22;stroke-width:1.0;"/><text fill="#000000" font-family="sans-serif" font-size="14" font-style="italic" lengthAdjust="spacing" textLength="141" x="1074.77" y="811.3613">setupModelOptions_()</text></g><!--class MenuModel--><g id="elem_MenuModel"><rect codeLine="72" fill="#E0FFFF" height="114.0469" id="MenuModel" rx="2.5" ry="2.5" style="stroke:#181818;stroke-width:0.5;" width="287" x="1437.77" y="702"/><ellipse cx="1452.77" cy="724.6094" fill="#ADD1B2" rx="11" ry="11" style="stroke:#181818;stroke-width:1.0;"/><path d="M1455.5356,720.4844 Q1455.6919,720.2656 1455.8794,720.1563 Q1456.0669,720.0469 1456.2856,720.0469 Q1456.6606,720.0469 1456.895,720.3125 Q1457.1294,720.5625 1457.1294,721.1719 L1457.1294,722.625 Q1457.1294,723.2344 1456.895,723.5 Q1456.6606,723.7656 1456.2856,723.7656 Q1455.9419,723.7656 1455.7388,723.5625 Q1455.5356,723.375 1455.4263,722.8594 Q1455.3794,722.5 1455.1919,722.3125 Q1454.8638,721.9375 1454.2544,721.7188 Q1453.645,721.5 1453.02,721.5 Q1452.2544,721.5 1451.6138,721.8281 Q1450.9888,722.1563 1450.4888,722.9063 Q1450.0044,723.6563 1450.0044,724.6875 L1450.0044,725.7813 Q1450.0044,727.0156 1450.895,727.8438 Q1451.7856,728.6563 1453.3794,728.6563 Q1454.3169,728.6563 1454.9731,728.4063 Q1455.3638,728.25 1455.7856,727.8125 Q1456.0513,727.5469 1456.1919,727.4688 Q1456.3481,727.3906 1456.5513,727.3906 Q1456.8794,727.3906 1457.1294,727.6563 Q1457.395,727.9063 1457.395,728.25 Q1457.395,728.5938 1457.0513,729 Q1456.5513,729.5781 1455.7544,729.9063 Q1454.6763,730.3594 1453.3794,730.3594 Q1451.8638,730.3594 1450.6606,729.7344 Q1449.6763,729.2344 1448.9888,728.1719 Q1448.3013,727.0938 1448.3013,725.8125 L1448.3013,724.6563 Q1448.3013,723.3281 1448.9106,722.1875 Q1449.5356,721.0313 1450.6294,720.4219 Q1451.7231,719.7969 1452.9575,719.7969 Q1453.6919,719.7969 1454.3325,719.9688 Q1454.9888,720.125 1455.5356,720.4844 Z " fill="#000000"/><text fill="#000000" font-family="sans-serif" font-size="14" lengthAdjust="spacing" textLength="255" x="1466.77" y="721.5332">&lt;NoDynamic_NoIterative_NoQuitOption&gt;</text><text fill="#000000" font-family="sans-serif" font-size="14" lengthAdjust="spacing" textLength="73" x="1557.77" y="739.1426">MenuModel</text><line style="stroke:#181818;stroke-width:0.5;" x1="1438.77" x2="1723.77" y1="747.2188" y2="747.2188"/><rect fill="none" height="6" style="stroke:#C82930;stroke-width:1.0;" width="6" x="1445.77" y="758.5234"/><text fill="#000000" font-family="sans-serif" font-size="14" lengthAdjust="spacing" textLength="38" x="1457.77" y="765.752">model</text><line style="stroke:#181818;stroke-width:0.5;" x1="1438.77" x2="1723.77" y1="772.8281" y2="772.8281"/><ellipse cx="1448.77" cy="787.1328" fill="#84BE84" rx="3" ry="3" style="stroke:#038048;stroke-width:1.0;"/><text fill="#000000" font-family="sans-serif" font-size="14" lengthAdjust="spacing" textLength="119" x="1457.77" y="791.3613">constructor(model)</text><polygon fill="#FFFF44" points="1448.77,799.7422,1452.77,803.7422,1448.77,807.7422,1444.77,803.7422" style="stroke:#B38D22;stroke-width:1.0;"/><text fill="#000000" font-family="sans-serif" font-size="14" lengthAdjust="spacing" textLength="102" x="1457.77" y="808.9707">setupOptions_()</text></g><!--class Model--><g id="elem_Model"><rect codeLine="157" fill="#ADD8E6" height="153.6563" id="Model" rx="2.5" ry="2.5" style="stroke:#181818;stroke-width:0.5;" width="126" x="1145.27" y="1386"/><ellipse cx="1185.47" cy="1402" fill="#ADD1B2" rx="11" ry="11" style="stroke:#181818;stroke-width:1.0;"/><path d="M1188.2356,1397.875 Q1188.3919,1397.6563 1188.5794,1397.5469 Q1188.7669,1397.4375 1188.9856,1397.4375 Q1189.3606,1397.4375 1189.595,1397.7031 Q1189.8294,1397.9531 1189.8294,1398.5625 L1189.8294,1400.0156 Q1189.8294,1400.625 1189.595,1400.8906 Q1189.3606,1401.1563 1188.9856,1401.1563 Q1188.6419,1401.1563 1188.4388,1400.9531 Q1188.2356,1400.7656 1188.1263,1400.25 Q1188.0794,1399.8906 1187.8919,1399.7031 Q1187.5638,1399.3281 1186.9544,1399.1094 Q1186.345,1398.8906 1185.72,1398.8906 Q1184.9544,1398.8906 1184.3138,1399.2188 Q1183.6888,1399.5469 1183.1888,1400.2969 Q1182.7044,1401.0469 1182.7044,1402.0781 L1182.7044,1403.1719 Q1182.7044,1404.4063 1183.595,1405.2344 Q1184.4856,1406.0469 1186.0794,1406.0469 Q1187.0169,1406.0469 1187.6731,1405.7969 Q1188.0638,1405.6406 1188.4856,1405.2031 Q1188.7513,1404.9375 1188.8919,1404.8594 Q1189.0481,1404.7813 1189.2513,1404.7813 Q1189.5794,1404.7813 1189.8294,1405.0469 Q1190.095,1405.2969 1190.095,1405.6406 Q1190.095,1405.9844 1189.7513,1406.3906 Q1189.2513,1406.9688 1188.4544,1407.2969 Q1187.3763,1407.75 1186.0794,1407.75 Q1184.5638,1407.75 1183.3606,1407.125 Q1182.3763,1406.625 1181.6888,1405.5625 Q1181.0013,1404.4844 1181.0013,1403.2031 L1181.0013,1402.0469 Q1181.0013,1400.7188 1181.6106,1399.5781 Q1182.2356,1398.4219 1183.3294,1397.8125 Q1184.4231,1397.1875 1185.6575,1397.1875 Q1186.3919,1397.1875 1187.0325,1397.3594 Q1187.6888,1397.5156 1188.2356,1397.875 Z " fill="#000000"/><text fill="#000000" font-family="sans-serif" font-size="14" lengthAdjust="spacing" textLength="38" x="1205.07" y="1407.7285">Model</text><line style="stroke:#181818;stroke-width:0.5;" x1="1146.27" x2="1270.27" y1="1418" y2="1418"/><rect fill="none" height="6" style="stroke:#C82930;stroke-width:1.0;" width="6" x="1153.27" y="1429.3047"/><text fill="#000000" font-family="sans-serif" font-size="14" lengthAdjust="spacing" textLength="35" x="1165.27" y="1436.5332">name</text><rect fill="none" height="6" style="stroke:#C82930;stroke-width:1.0;" width="6" x="1153.27" y="1446.9141"/><text fill="#000000" font-family="sans-serif" font-size="14" lengthAdjust="spacing" textLength="43" x="1165.27" y="1454.1426">adress</text><rect fill="none" height="6" style="stroke:#C82930;stroke-width:1.0;" width="6" x="1153.27" y="1464.5234"/><text fill="#000000" font-family="sans-serif" font-size="14" lengthAdjust="spacing" textLength="33" x="1165.27" y="1471.752">tasks</text><line style="stroke:#181818;stroke-width:0.5;" x1="1146.27" x2="1270.27" y1="1478.8281" y2="1478.8281"/><ellipse cx="1156.27" cy="1493.1328" fill="#84BE84" rx="3" ry="3" style="stroke:#038048;stroke-width:1.0;"/><text fill="#000000" font-family="sans-serif" font-size="14" lengthAdjust="spacing" textLength="100" x="1165.27" y="1497.3613">setName(name)</text><ellipse cx="1156.27" cy="1510.7422" fill="#84BE84" rx="3" ry="3" style="stroke:#038048;stroke-width:1.0;"/><text fill="#000000" font-family="sans-serif" font-size="14" lengthAdjust="spacing" textLength="73" x="1165.27" y="1514.9707">getDetails()</text><ellipse cx="1156.27" cy="1528.3516" fill="#84BE84" rx="3" ry="3" style="stroke:#038048;stroke-width:1.0;"/><text fill="#000000" font-family="sans-serif" font-size="14" lengthAdjust="spacing" textLength="68" x="1165.27" y="1532.5801">getTasks()</text></g><!--class QuitMenuModel--><g id="elem_QuitMenuModel"><rect codeLine="81" fill="#E0FFFF" height="114.0469" id="QuitMenuModel" rx="2.5" ry="2.5" style="stroke:#181818;stroke-width:0.5;" width="270" x="1261.27" y="1212"/><ellipse cx="1276.27" cy="1234.6094" fill="#ADD1B2" rx="11" ry="11" style="stroke:#181818;stroke-width:1.0;"/><path d="M1279.0356,1230.4844 Q1279.1919,1230.2656 1279.3794,1230.1563 Q1279.5669,1230.0469 1279.7856,1230.0469 Q1280.1606,1230.0469 1280.395,1230.3125 Q1280.6294,1230.5625 1280.6294,1231.1719 L1280.6294,1232.625 Q1280.6294,1233.2344 1280.395,1233.5 Q1280.1606,1233.7656 1279.7856,1233.7656 Q1279.4419,1233.7656 1279.2388,1233.5625 Q1279.0356,1233.375 1278.9263,1232.8594 Q1278.8794,1232.5 1278.6919,1232.3125 Q1278.3638,1231.9375 1277.7544,1231.7188 Q1277.145,1231.5 1276.52,1231.5 Q1275.7544,1231.5 1275.1138,1231.8281 Q1274.4888,1232.1563 1273.9888,1232.9063 Q1273.5044,1233.6563 1273.5044,1234.6875 L1273.5044,1235.7813 Q1273.5044,1237.0156 1274.395,1237.8438 Q1275.2856,1238.6563 1276.8794,1238.6563 Q1277.8169,1238.6563 1278.4731,1238.4063 Q1278.8638,1238.25 1279.2856,1237.8125 Q1279.5513,1237.5469 1279.6919,1237.4688 Q1279.8481,1237.3906 1280.0513,1237.3906 Q1280.3794,1237.3906 1280.6294,1237.6563 Q1280.895,1237.9063 1280.895,1238.25 Q1280.895,1238.5938 1280.5513,1239 Q1280.0513,1239.5781 1279.2544,1239.9063 Q1278.1763,1240.3594 1276.8794,1240.3594 Q1275.3638,1240.3594 1274.1606,1239.7344 Q1273.1763,1239.2344 1272.4888,1238.1719 Q1271.8013,1237.0938 1271.8013,1235.8125 L1271.8013,1234.6563 Q1271.8013,1233.3281 1272.4106,1232.1875 Q1273.0356,1231.0313 1274.1294,1230.4219 Q1275.2231,1229.7969 1276.4575,1229.7969 Q1277.1919,1229.7969 1277.8325,1229.9688 Q1278.4888,1230.125 1279.0356,1230.4844 Z " fill="#000000"/><text fill="#000000" font-family="sans-serif" font-size="14" lengthAdjust="spacing" textLength="238" x="1290.27" y="1231.5332">&lt;NoDynamic_NoIterative_QuitOption&gt;</text><text fill="#000000" font-family="sans-serif" font-size="14" lengthAdjust="spacing" textLength="99" x="1359.77" y="1249.1426">QuitMenuModel</text><line style="stroke:#181818;stroke-width:0.5;" x1="1262.27" x2="1530.27" y1="1257.2188" y2="1257.2188"/><rect fill="none" height="6" style="stroke:#C82930;stroke-width:1.0;" width="6" x="1269.27" y="1268.5234"/><text fill="#000000" font-family="sans-serif" font-size="14" lengthAdjust="spacing" textLength="38" x="1281.27" y="1275.752">model</text><line style="stroke:#181818;stroke-width:0.5;" x1="1262.27" x2="1530.27" y1="1282.8281" y2="1282.8281"/><ellipse cx="1272.27" cy="1297.1328" fill="#84BE84" rx="3" ry="3" style="stroke:#038048;stroke-width:1.0;"/><text fill="#000000" font-family="sans-serif" font-size="14" lengthAdjust="spacing" textLength="119" x="1281.27" y="1301.3613">constructor(model)</text><polygon fill="#FFFF44" points="1272.27,1309.7422,1276.27,1313.7422,1272.27,1317.7422,1268.27,1313.7422" style="stroke:#B38D22;stroke-width:1.0;"/><text fill="#000000" font-family="sans-serif" font-size="14" lengthAdjust="spacing" textLength="140" x="1281.27" y="1318.9707">setupModelOptions_()</text></g><!--class DynamicIterativeMenuModel--><g id="elem_DynamicIterativeMenuModel"><rect codeLine="90" fill="#E0FFFF" height="114.0469" id="DynamicIterativeMenuModel" rx="2.5" ry="2.5" style="stroke:#181818;stroke-width:0.5;" width="236" x="916.27" y="1212"/><ellipse cx="931.27" cy="1234.6094" fill="#ADD1B2" rx="11" ry="11" style="stroke:#181818;stroke-width:1.0;"/><path d="M934.0356,1230.4844 Q934.1919,1230.2656 934.3794,1230.1563 Q934.5669,1230.0469 934.7856,1230.0469 Q935.1606,1230.0469 935.395,1230.3125 Q935.6294,1230.5625 935.6294,1231.1719 L935.6294,1232.625 Q935.6294,1233.2344 935.395,1233.5 Q935.1606,1233.7656 934.7856,1233.7656 Q934.4419,1233.7656 934.2388,1233.5625 Q934.0356,1233.375 933.9263,1232.8594 Q933.8794,1232.5 933.6919,1232.3125 Q933.3638,1231.9375 932.7544,1231.7188 Q932.145,1231.5 931.52,1231.5 Q930.7544,1231.5 930.1138,1231.8281 Q929.4888,1232.1563 928.9888,1232.9063 Q928.5044,1233.6563 928.5044,1234.6875 L928.5044,1235.7813 Q928.5044,1237.0156 929.395,1237.8438 Q930.2856,1238.6563 931.8794,1238.6563 Q932.8169,1238.6563 933.4731,1238.4063 Q933.8638,1238.25 934.2856,1237.8125 Q934.5513,1237.5469 934.6919,1237.4688 Q934.8481,1237.3906 935.0513,1237.3906 Q935.3794,1237.3906 935.6294,1237.6563 Q935.895,1237.9063 935.895,1238.25 Q935.895,1238.5938 935.5513,1239 Q935.0513,1239.5781 934.2544,1239.9063 Q933.1763,1240.3594 931.8794,1240.3594 Q930.3638,1240.3594 929.1606,1239.7344 Q928.1763,1239.2344 927.4888,1238.1719 Q926.8013,1237.0938 926.8013,1235.8125 L926.8013,1234.6563 Q926.8013,1233.3281 927.4106,1232.1875 Q928.0356,1231.0313 929.1294,1230.4219 Q930.2231,1229.7969 931.4575,1229.7969 Q932.1919,1229.7969 932.8325,1229.9688 Q933.4888,1230.125 934.0356,1230.4844 Z " fill="#000000"/><text fill="#000000" font-family="sans-serif" font-size="14" lengthAdjust="spacing" textLength="204" x="945.27" y="1231.5332">&lt;Dynamic_Iterative_QuitOption&gt;</text><text fill="#000000" font-family="sans-serif" font-size="14" lengthAdjust="spacing" textLength="177" x="958.77" y="1249.1426">DynamicIterativeMenuModel</text><line style="stroke:#181818;stroke-width:0.5;" x1="917.27" x2="1151.27" y1="1257.2188" y2="1257.2188"/><rect fill="none" height="6" style="stroke:#C82930;stroke-width:1.0;" width="6" x="924.27" y="1268.5234"/><text fill="#000000" font-family="sans-serif" font-size="14" lengthAdjust="spacing" textLength="38" x="936.27" y="1275.752">model</text><line style="stroke:#181818;stroke-width:0.5;" x1="917.27" x2="1151.27" y1="1282.8281" y2="1282.8281"/><ellipse cx="927.27" cy="1297.1328" fill="#84BE84" rx="3" ry="3" style="stroke:#038048;stroke-width:1.0;"/><text fill="#000000" font-family="sans-serif" font-size="14" lengthAdjust="spacing" textLength="119" x="936.27" y="1301.3613">constructor(model)</text><polygon fill="#FFFF44" points="927.27,1309.7422,931.27,1313.7422,927.27,1317.7422,923.27,1313.7422" style="stroke:#B38D22;stroke-width:1.0;"/><text fill="#000000" font-family="sans-serif" font-size="14" lengthAdjust="spacing" textLength="140" x="936.27" y="1318.9707">setupModelOptions_()</text></g><!--class PriorizeTaskModelOption--><g id="elem_PriorizeTaskModelOption"><rect codeLine="139" fill="#90EE90" height="114.0469" id="PriorizeTaskModelOption" rx="2.5" ry="2.5" style="stroke:#181818;stroke-width:0.5;" width="190" x="471.27" y="1406"/><ellipse cx="486.27" cy="1428.6094" fill="#ADD1B2" rx="11" ry="11" style="stroke:#181818;stroke-width:1.0;"/><path d="M489.0356,1424.4844 Q489.1919,1424.2656 489.3794,1424.1563 Q489.5669,1424.0469 489.7856,1424.0469 Q490.1606,1424.0469 490.395,1424.3125 Q490.6294,1424.5625 490.6294,1425.1719 L490.6294,1426.625 Q490.6294,1427.2344 490.395,1427.5 Q490.1606,1427.7656 489.7856,1427.7656 Q489.4419,1427.7656 489.2388,1427.5625 Q489.0356,1427.375 488.9263,1426.8594 Q488.8794,1426.5 488.6919,1426.3125 Q488.3638,1425.9375 487.7544,1425.7188 Q487.145,1425.5 486.52,1425.5 Q485.7544,1425.5 485.1138,1425.8281 Q484.4888,1426.1563 483.9888,1426.9063 Q483.5044,1427.6563 483.5044,1428.6875 L483.5044,1429.7813 Q483.5044,1431.0156 484.395,1431.8438 Q485.2856,1432.6563 486.8794,1432.6563 Q487.8169,1432.6563 488.4731,1432.4063 Q488.8638,1432.25 489.2856,1431.8125 Q489.5513,1431.5469 489.6919,1431.4688 Q489.8481,1431.3906 490.0513,1431.3906 Q490.3794,1431.3906 490.6294,1431.6563 Q490.895,1431.9063 490.895,1432.25 Q490.895,1432.5938 490.5513,1433 Q490.0513,1433.5781 489.2544,1433.9063 Q488.1763,1434.3594 486.8794,1434.3594 Q485.3638,1434.3594 484.1606,1433.7344 Q483.1763,1433.2344 482.4888,1432.1719 Q481.8013,1431.0938 481.8013,1429.8125 L481.8013,1428.6563 Q481.8013,1427.3281 482.4106,1426.1875 Q483.0356,1425.0313 484.1294,1424.4219 Q485.2231,1423.7969 486.4575,1423.7969 Q487.1919,1423.7969 487.8325,1423.9688 Q488.4888,1424.125 489.0356,1424.4844 Z " fill="#000000"/><text fill="#000000" font-family="sans-serif" font-size="14" lengthAdjust="spacing" textLength="104" x="527.27" y="1425.5332">&lt;Simple Option&gt;</text><text fill="#000000" font-family="sans-serif" font-size="14" lengthAdjust="spacing" textLength="158" x="500.27" y="1443.1426">PriorizeTaskModelOption</text><line style="stroke:#181818;stroke-width:0.5;" x1="472.27" x2="660.27" y1="1451.2188" y2="1451.2188"/><rect fill="none" height="6" style="stroke:#C82930;stroke-width:1.0;" width="6" x="479.27" y="1462.5234"/><text fill="#000000" font-family="sans-serif" font-size="14" lengthAdjust="spacing" textLength="33" x="491.27" y="1469.752">index</text><line style="stroke:#181818;stroke-width:0.5;" x1="472.27" x2="660.27" y1="1476.8281" y2="1476.8281"/><ellipse cx="482.27" cy="1491.1328" fill="#84BE84" rx="3" ry="3" style="stroke:#038048;stroke-width:1.0;"/><text fill="#000000" font-family="sans-serif" font-size="14" lengthAdjust="spacing" textLength="160" x="491.27" y="1495.3613">constructor(model, index)</text><ellipse cx="482.27" cy="1508.7422" fill="#84BE84" rx="3" ry="3" style="stroke:#038048;stroke-width:1.0;"/><text fill="#000000" font-family="sans-serif" font-size="14" lengthAdjust="spacing" textLength="57" x="491.27" y="1512.9707">interact()</text></g><!--class StaticIterativeMenuModel--><g id="elem_StaticIterativeMenuModel"><rect codeLine="100" fill="#E0FFFF" height="114.0469" id="StaticIterativeMenuModel" rx="2.5" ry="2.5" style="stroke:#181818;stroke-width:0.5;" width="349" x="963.77" y="880"/><ellipse cx="978.77" cy="902.6094" fill="#ADD1B2" rx="11" ry="11" style="stroke:#181818;stroke-width:1.0;"/><path d="M981.5356,898.4844 Q981.6919,898.2656 981.8794,898.1563 Q982.0669,898.0469 982.2856,898.0469 Q982.6606,898.0469 982.895,898.3125 Q983.1294,898.5625 983.1294,899.1719 L983.1294,900.625 Q983.1294,901.2344 982.895,901.5 Q982.6606,901.7656 982.2856,901.7656 Q981.9419,901.7656 981.7388,901.5625 Q981.5356,901.375 981.4263,900.8594 Q981.3794,900.5 981.1919,900.3125 Q980.8638,899.9375 980.2544,899.7188 Q979.645,899.5 979.02,899.5 Q978.2544,899.5 977.6138,899.8281 Q976.9888,900.1563 976.4888,900.9063 Q976.0044,901.6563 976.0044,902.6875 L976.0044,903.7813 Q976.0044,905.0156 976.895,905.8438 Q977.7856,906.6563 979.3794,906.6563 Q980.3169,906.6563 980.9731,906.4063 Q981.3638,906.25 981.7856,905.8125 Q982.0513,905.5469 982.1919,905.4688 Q982.3481,905.3906 982.5513,905.3906 Q982.8794,905.3906 983.1294,905.6563 Q983.395,905.9063 983.395,906.25 Q983.395,906.5938 983.0513,907 Q982.5513,907.5781 981.7544,907.9063 Q980.6763,908.3594 979.3794,908.3594 Q977.8638,908.3594 976.6606,907.7344 Q975.6763,907.2344 974.9888,906.1719 Q974.3013,905.0938 974.3013,903.8125 L974.3013,902.6563 Q974.3013,901.3281 974.9106,900.1875 Q975.5356,899.0313 976.6294,898.4219 Q977.7231,897.7969 978.9575,897.7969 Q979.6919,897.7969 980.3325,897.9688 Q980.9888,898.125 981.5356,898.4844 Z " fill="#000000"/><text fill="#000000" font-family="sans-serif" font-size="14" lengthAdjust="spacing" textLength="317" x="992.77" y="899.5332">&lt;WithSubMenu_NoDynamic_Iterative_QuitOption&gt;</text><text fill="#000000" font-family="sans-serif" font-size="14" lengthAdjust="spacing" textLength="246" x="1028.27" y="917.1426">WithSubMenuStaticIterativeMenuModel</text><line style="stroke:#181818;stroke-width:0.5;" x1="964.77" x2="1311.77" y1="925.2188" y2="925.2188"/><rect fill="none" height="6" style="stroke:#C82930;stroke-width:1.0;" width="6" x="971.77" y="936.5234"/><text fill="#000000" font-family="sans-serif" font-size="14" lengthAdjust="spacing" textLength="38" x="983.77" y="943.752">model</text><line style="stroke:#181818;stroke-width:0.5;" x1="964.77" x2="1311.77" y1="950.8281" y2="950.8281"/><ellipse cx="974.77" cy="965.1328" fill="#84BE84" rx="3" ry="3" style="stroke:#038048;stroke-width:1.0;"/><text fill="#000000" font-family="sans-serif" font-size="14" lengthAdjust="spacing" textLength="119" x="983.77" y="969.3613">constructor(model)</text><polygon fill="#FFFF44" points="974.77,977.7422,978.77,981.7422,974.77,985.7422,970.77,981.7422" style="stroke:#B38D22;stroke-width:1.0;"/><text fill="#000000" font-family="sans-serif" font-size="14" lengthAdjust="spacing" textLength="140" x="983.77" y="986.9707">setupModelOptions_()</text></g><!--class PriorizeTasksModelOption--><g id="elem_PriorizeTasksModelOption"><rect codeLine="147" fill="#ADFF2F" height="96.4375" id="PriorizeTasksModelOption" rx="2.5" ry="2.5" style="stroke:#181818;stroke-width:0.5;" width="197" x="961.77" y="1056"/><ellipse cx="976.77" cy="1078.6094" fill="#ADD1B2" rx="11" ry="11" style="stroke:#181818;stroke-width:1.0;"/><path d="M979.5356,1074.4844 Q979.6919,1074.2656 979.8794,1074.1563 Q980.0669,1074.0469 980.2856,1074.0469 Q980.6606,1074.0469 980.895,1074.3125 Q981.1294,1074.5625 981.1294,1075.1719 L981.1294,1076.625 Q981.1294,1077.2344 980.895,1077.5 Q980.6606,1077.7656 980.2856,1077.7656 Q979.9419,1077.7656 979.7388,1077.5625 Q979.5356,1077.375 979.4263,1076.8594 Q979.3794,1076.5 979.1919,1076.3125 Q978.8638,1075.9375 978.2544,1075.7188 Q977.645,1075.5 977.02,1075.5 Q976.2544,1075.5 975.6138,1075.8281 Q974.9888,1076.1563 974.4888,1076.9063 Q974.0044,1077.6563 974.0044,1078.6875 L974.0044,1079.7813 Q974.0044,1081.0156 974.895,1081.8438 Q975.7856,1082.6563 977.3794,1082.6563 Q978.3169,1082.6563 978.9731,1082.4063 Q979.3638,1082.25 979.7856,1081.8125 Q980.0513,1081.5469 980.1919,1081.4688 Q980.3481,1081.3906 980.5513,1081.3906 Q980.8794,1081.3906 981.1294,1081.6563 Q981.395,1081.9063 981.395,1082.25 Q981.395,1082.5938 981.0513,1083 Q980.5513,1083.5781 979.7544,1083.9063 Q978.6763,1084.3594 977.3794,1084.3594 Q975.8638,1084.3594 974.6606,1083.7344 Q973.6763,1083.2344 972.9888,1082.1719 Q972.3013,1081.0938 972.3013,1079.8125 L972.3013,1078.6563 Q972.3013,1077.3281 972.9106,1076.1875 Q973.5356,1075.0313 974.6294,1074.4219 Q975.7231,1073.7969 976.9575,1073.7969 Q977.6919,1073.7969 978.3325,1073.9688 Q978.9888,1074.125 979.5356,1074.4844 Z " fill="#000000"/><text fill="#000000" font-family="sans-serif" font-size="14" lengthAdjust="spacing" textLength="94" x="1026.27" y="1075.5332">&lt;InitSubmenu&gt;</text><text fill="#000000" font-family="sans-serif" font-size="14" lengthAdjust="spacing" textLength="165" x="990.77" y="1093.1426">PriorizeTasksModelOption</text><line style="stroke:#181818;stroke-width:0.5;" x1="962.77" x2="1157.77" y1="1101.2188" y2="1101.2188"/><line style="stroke:#181818;stroke-width:0.5;" x1="962.77" x2="1157.77" y1="1109.2188" y2="1109.2188"/><ellipse cx="972.77" cy="1123.5234" fill="#84BE84" rx="3" ry="3" style="stroke:#038048;stroke-width:1.0;"/><text fill="#000000" font-family="sans-serif" font-size="14" lengthAdjust="spacing" textLength="119" x="981.77" y="1127.752">constructor(model)</text><ellipse cx="972.77" cy="1141.1328" fill="#84BE84" rx="3" ry="3" style="stroke:#038048;stroke-width:1.0;"/><text fill="#000000" font-family="sans-serif" font-size="14" lengthAdjust="spacing" textLength="57" x="981.77" y="1145.3613">interact()</text></g><!--class ModelOption--><g id="elem_ModelOption"><rect codeLine="111" fill="#32CD32" height="118.4375" id="ModelOption" rx="2.5" ry="2.5" style="stroke:#181818;stroke-width:0.5;" width="175" x="604.77" y="878"/><ellipse cx="647.67" cy="894" fill="#A9DCDF" rx="11" ry="11" style="stroke:#181818;stroke-width:1.0;"/><path d="M649.8575,895.7656 L645.7169,895.7656 L645.295,896.7969 L645.7169,896.7969 Q646.3263,896.7969 646.5919,897.0313 Q646.8575,897.2656 646.8575,897.6563 Q646.8575,898.0313 646.5919,898.2656 Q646.3263,898.5 645.7169,898.5 L643.42,898.5 Q642.8106,898.5 642.5606,898.2656 Q642.295,898.0313 642.295,897.6406 Q642.295,897.2656 642.5763,897.0313 Q642.8419,896.7813 643.4669,896.7969 L646.1388,890.1406 L645.0294,890.1406 Q644.42,890.1406 644.1544,889.9063 Q643.8888,889.6719 643.8888,889.2813 Q643.8888,888.9063 644.1544,888.6719 Q644.42,888.4375 645.0294,888.4375 L648.7013,888.4375 L652.0919,896.7969 Q652.6856,896.7969 652.8731,896.9375 Q653.2638,897.2031 653.2638,897.6563 Q653.2638,898.0313 652.9981,898.2656 Q652.7481,898.5 652.1388,898.5 L649.8419,898.5 Q649.2325,898.5 648.9669,898.2656 Q648.7013,898.0313 648.7013,897.6406 Q648.7013,897.2656 648.9669,897.0313 Q649.2325,896.7969 649.8419,896.7969 L650.2638,896.7969 L649.8575,895.7656 Z M649.1388,894.0625 L647.7794,890.6875 L646.4044,894.0625 L649.1388,894.0625 Z " fill="#000000"/><text fill="#000000" font-family="sans-serif" font-size="14" font-style="italic" lengthAdjust="spacing" textLength="81" x="667.87" y="899.7285">ModelOption</text><line style="stroke:#181818;stroke-width:0.5;" x1="605.77" x2="778.77" y1="910" y2="910"/><rect fill="none" height="6" style="stroke:#C82930;stroke-width:1.0;" width="6" x="612.77" y="921.3047"/><text fill="#000000" font-family="sans-serif" font-size="14" lengthAdjust="spacing" textLength="38" x="624.77" y="928.5332">model</text><line style="stroke:#181818;stroke-width:0.5;" x1="605.77" x2="778.77" y1="935.6094" y2="935.6094"/><ellipse cx="615.77" cy="949.9141" fill="#84BE84" rx="3" ry="3" style="stroke:#038048;stroke-width:1.0;"/><text fill="#000000" font-family="sans-serif" font-size="14" lengthAdjust="spacing" textLength="149" x="624.77" y="954.1426">constructor(model, title)</text><ellipse cx="615.77" cy="967.5234" fill="#84BE84" rx="3" ry="3" style="stroke:#038048;stroke-width:1.0;"/><text fill="#000000" font-family="sans-serif" font-size="14" font-style="italic" lengthAdjust="spacing" textLength="57" x="624.77" y="971.752">interact()</text><polygon fill="#FFFF44" points="615.77,980.1328,619.77,984.1328,615.77,988.1328,611.77,984.1328" style="stroke:#B38D22;stroke-width:1.0;"/><text fill="#000000" font-family="sans-serif" font-size="14" lengthAdjust="spacing" textLength="76" x="624.77" y="989.3613">getModel_()</text></g><!--class UpdateNameModelOption--><g id="elem_UpdateNameModelOption"><rect codeLine="121" fill="#90EE90" height="96.4375" id="UpdateNameModelOption" rx="2.5" ry="2.5" style="stroke:#181818;stroke-width:0.5;" width="193" x="147.77" y="1056"/><ellipse cx="162.77" cy="1078.6094" fill="#ADD1B2" rx="11" ry="11" style="stroke:#181818;stroke-width:1.0;"/><path d="M165.5356,1074.4844 Q165.6919,1074.2656 165.8794,1074.1563 Q166.0669,1074.0469 166.2856,1074.0469 Q166.6606,1074.0469 166.895,1074.3125 Q167.1294,1074.5625 167.1294,1075.1719 L167.1294,1076.625 Q167.1294,1077.2344 166.895,1077.5 Q166.6606,1077.7656 166.2856,1077.7656 Q165.9419,1077.7656 165.7387,1077.5625 Q165.5356,1077.375 165.4262,1076.8594 Q165.3794,1076.5 165.1919,1076.3125 Q164.8637,1075.9375 164.2544,1075.7188 Q163.645,1075.5 163.02,1075.5 Q162.2544,1075.5 161.6137,1075.8281 Q160.9887,1076.1563 160.4887,1076.9063 Q160.0044,1077.6563 160.0044,1078.6875 L160.0044,1079.7813 Q160.0044,1081.0156 160.895,1081.8438 Q161.7856,1082.6563 163.3794,1082.6563 Q164.3169,1082.6563 164.9731,1082.4063 Q165.3637,1082.25 165.7856,1081.8125 Q166.0512,1081.5469 166.1919,1081.4688 Q166.3481,1081.3906 166.5512,1081.3906 Q166.8794,1081.3906 167.1294,1081.6563 Q167.395,1081.9063 167.395,1082.25 Q167.395,1082.5938 167.0512,1083 Q166.5512,1083.5781 165.7544,1083.9063 Q164.6762,1084.3594 163.3794,1084.3594 Q161.8637,1084.3594 160.6606,1083.7344 Q159.6762,1083.2344 158.9887,1082.1719 Q158.3012,1081.0938 158.3012,1079.8125 L158.3012,1078.6563 Q158.3012,1077.3281 158.9106,1076.1875 Q159.5356,1075.0313 160.6294,1074.4219 Q161.7231,1073.7969 162.9575,1073.7969 Q163.6919,1073.7969 164.3325,1073.9688 Q164.9887,1074.125 165.5356,1074.4844 Z " fill="#000000"/><text fill="#000000" font-family="sans-serif" font-size="14" lengthAdjust="spacing" textLength="104" x="205.27" y="1075.5332">&lt;Simple Option&gt;</text><text fill="#000000" font-family="sans-serif" font-size="14" lengthAdjust="spacing" textLength="161" x="176.77" y="1093.1426">UpdateNameModelOption</text><line style="stroke:#181818;stroke-width:0.5;" x1="148.77" x2="339.77" y1="1101.2188" y2="1101.2188"/><line style="stroke:#181818;stroke-width:0.5;" x1="148.77" x2="339.77" y1="1109.2188" y2="1109.2188"/><ellipse cx="158.77" cy="1123.5234" fill="#84BE84" rx="3" ry="3" style="stroke:#038048;stroke-width:1.0;"/><text fill="#000000" font-family="sans-serif" font-size="14" lengthAdjust="spacing" textLength="119" x="167.77" y="1127.752">constructor(model)</text><ellipse cx="158.77" cy="1141.1328" fill="#84BE84" rx="3" ry="3" style="stroke:#038048;stroke-width:1.0;"/><text fill="#000000" font-family="sans-serif" font-size="14" lengthAdjust="spacing" textLength="57" x="167.77" y="1145.3613">interact()</text></g><!--class ShowDetailsModelOption--><g id="elem_ShowDetailsModelOption"><rect codeLine="127" fill="#90EE90" height="96.4375" id="ShowDetailsModelOption" rx="2.5" ry="2.5" style="stroke:#181818;stroke-width:0.5;" width="189" x="375.77" y="1056"/><ellipse cx="390.77" cy="1078.6094" fill="#ADD1B2" rx="11" ry="11" style="stroke:#181818;stroke-width:1.0;"/><path d="M393.5356,1074.4844 Q393.6919,1074.2656 393.8794,1074.1563 Q394.0669,1074.0469 394.2856,1074.0469 Q394.6606,1074.0469 394.895,1074.3125 Q395.1294,1074.5625 395.1294,1075.1719 L395.1294,1076.625 Q395.1294,1077.2344 394.895,1077.5 Q394.6606,1077.7656 394.2856,1077.7656 Q393.9419,1077.7656 393.7388,1077.5625 Q393.5356,1077.375 393.4263,1076.8594 Q393.3794,1076.5 393.1919,1076.3125 Q392.8638,1075.9375 392.2544,1075.7188 Q391.645,1075.5 391.02,1075.5 Q390.2544,1075.5 389.6138,1075.8281 Q388.9888,1076.1563 388.4888,1076.9063 Q388.0044,1077.6563 388.0044,1078.6875 L388.0044,1079.7813 Q388.0044,1081.0156 388.895,1081.8438 Q389.7856,1082.6563 391.3794,1082.6563 Q392.3169,1082.6563 392.9731,1082.4063 Q393.3638,1082.25 393.7856,1081.8125 Q394.0513,1081.5469 394.1919,1081.4688 Q394.3481,1081.3906 394.5513,1081.3906 Q394.8794,1081.3906 395.1294,1081.6563 Q395.395,1081.9063 395.395,1082.25 Q395.395,1082.5938 395.0513,1083 Q394.5513,1083.5781 393.7544,1083.9063 Q392.6763,1084.3594 391.3794,1084.3594 Q389.8638,1084.3594 388.6606,1083.7344 Q387.6763,1083.2344 386.9888,1082.1719 Q386.3013,1081.0938 386.3013,1079.8125 L386.3013,1078.6563 Q386.3013,1077.3281 386.9106,1076.1875 Q387.5356,1075.0313 388.6294,1074.4219 Q389.7231,1073.7969 390.9575,1073.7969 Q391.6919,1073.7969 392.3325,1073.9688 Q392.9888,1074.125 393.5356,1074.4844 Z " fill="#000000"/><text fill="#000000" font-family="sans-serif" font-size="14" lengthAdjust="spacing" textLength="104" x="431.27" y="1075.5332">&lt;Simple Option&gt;</text><text fill="#000000" font-family="sans-serif" font-size="14" lengthAdjust="spacing" textLength="157" x="404.77" y="1093.1426">ShowDetailsModelOption</text><line style="stroke:#181818;stroke-width:0.5;" x1="376.77" x2="563.77" y1="1101.2188" y2="1101.2188"/><line style="stroke:#181818;stroke-width:0.5;" x1="376.77" x2="563.77" y1="1109.2188" y2="1109.2188"/><ellipse cx="386.77" cy="1123.5234" fill="#84BE84" rx="3" ry="3" style="stroke:#038048;stroke-width:1.0;"/><text fill="#000000" font-family="sans-serif" font-size="14" lengthAdjust="spacing" textLength="119" x="395.77" y="1127.752">constructor(model)</text><ellipse cx="386.77" cy="1141.1328" fill="#84BE84" rx="3" ry="3" style="stroke:#038048;stroke-width:1.0;"/><text fill="#000000" font-family="sans-serif" font-size="14" lengthAdjust="spacing" textLength="57" x="395.77" y="1145.3613">interact()</text></g><!--class ShowTasksModelOption--><g id="elem_ShowTasksModelOption"><rect codeLine="133" fill="#90EE90" height="96.4375" id="ShowTasksModelOption" rx="2.5" ry="2.5" style="stroke:#181818;stroke-width:0.5;" width="184" x="600.27" y="1056"/><ellipse cx="615.27" cy="1078.6094" fill="#ADD1B2" rx="11" ry="11" style="stroke:#181818;stroke-width:1.0;"/><path d="M618.0356,1074.4844 Q618.1919,1074.2656 618.3794,1074.1563 Q618.5669,1074.0469 618.7856,1074.0469 Q619.1606,1074.0469 619.395,1074.3125 Q619.6294,1074.5625 619.6294,1075.1719 L619.6294,1076.625 Q619.6294,1077.2344 619.395,1077.5 Q619.1606,1077.7656 618.7856,1077.7656 Q618.4419,1077.7656 618.2388,1077.5625 Q618.0356,1077.375 617.9263,1076.8594 Q617.8794,1076.5 617.6919,1076.3125 Q617.3638,1075.9375 616.7544,1075.7188 Q616.145,1075.5 615.52,1075.5 Q614.7544,1075.5 614.1138,1075.8281 Q613.4888,1076.1563 612.9888,1076.9063 Q612.5044,1077.6563 612.5044,1078.6875 L612.5044,1079.7813 Q612.5044,1081.0156 613.395,1081.8438 Q614.2856,1082.6563 615.8794,1082.6563 Q616.8169,1082.6563 617.4731,1082.4063 Q617.8638,1082.25 618.2856,1081.8125 Q618.5513,1081.5469 618.6919,1081.4688 Q618.8481,1081.3906 619.0513,1081.3906 Q619.3794,1081.3906 619.6294,1081.6563 Q619.895,1081.9063 619.895,1082.25 Q619.895,1082.5938 619.5513,1083 Q619.0513,1083.5781 618.2544,1083.9063 Q617.1763,1084.3594 615.8794,1084.3594 Q614.3638,1084.3594 613.1606,1083.7344 Q612.1763,1083.2344 611.4888,1082.1719 Q610.8013,1081.0938 610.8013,1079.8125 L610.8013,1078.6563 Q610.8013,1077.3281 611.4106,1076.1875 Q612.0356,1075.0313 613.1294,1074.4219 Q614.2231,1073.7969 615.4575,1073.7969 Q616.1919,1073.7969 616.8325,1073.9688 Q617.4888,1074.125 618.0356,1074.4844 Z " fill="#000000"/><text fill="#000000" font-family="sans-serif" font-size="14" lengthAdjust="spacing" textLength="104" x="653.27" y="1075.5332">&lt;Simple Option&gt;</text><text fill="#000000" font-family="sans-serif" font-size="14" lengthAdjust="spacing" textLength="152" x="629.27" y="1093.1426">ShowTasksModelOption</text><line style="stroke:#181818;stroke-width:0.5;" x1="601.27" x2="783.27" y1="1101.2188" y2="1101.2188"/><line style="stroke:#181818;stroke-width:0.5;" x1="601.27" x2="783.27" y1="1109.2188" y2="1109.2188"/><ellipse cx="611.27" cy="1123.5234" fill="#84BE84" rx="3" ry="3" style="stroke:#038048;stroke-width:1.0;"/><text fill="#000000" font-family="sans-serif" font-size="14" lengthAdjust="spacing" textLength="119" x="620.27" y="1127.752">constructor(model)</text><ellipse cx="611.27" cy="1141.1328" fill="#84BE84" rx="3" ry="3" style="stroke:#038048;stroke-width:1.0;"/><text fill="#000000" font-family="sans-serif" font-size="14" lengthAdjust="spacing" textLength="57" x="620.27" y="1145.3613">interact()</text></g><!--link Menu to Option--><g id="link_Menu_Option"><path codeLine="17" d="M957.8005,277.2972 C946.8805,301.3572 943.4192,308.9762 934.0992,329.5162 " fill="none" id="Menu-Option" style="stroke:#181818;stroke-width:1.0;"/><polygon fill="#181818" points="962.76,266.37,956.6379,270.1804,957.8005,277.2972,963.9227,273.4868,962.76,266.37" style="stroke:#181818;stroke-width:1.0;"/><polygon fill="#181818" points="931.62,334.98,938.9814,328.4371,933.686,330.4268,931.6963,325.1314,931.62,334.98" style="stroke:#181818;stroke-width:1.0;"/><text fill="#000000" font-family="sans-serif" font-size="13" lengthAdjust="spacing" textLength="8" x="926.3439" y="324.3018">+</text></g><!--link Menu to Console--><g id="link_Menu_Console"><path codeLine="18" d="M946.66,193.26 C905.28,227.56 855.78,274.68 823.27,326 C774.68,402.71 752.3756,504.4836 744.0456,551.0936 " fill="none" id="Menu-to-Console" style="stroke:#181818;stroke-width:1.0;stroke-dasharray:7.0,7.0;"/><polygon fill="#181818" points="742.99,557,748.511,548.8441,743.8696,552.078,740.6358,547.4367,742.99,557" style="stroke:#181818;stroke-width:1.0;"/></g><!--reverse link Menu to QuitMenu--><g id="link_Menu_QuitMenu"><path codeLine="29" d="M1073.7752,283.3066 C1081.1852,303.8966 1082.49,307.51 1089.1,325.88 " fill="none" id="Menu-backto-QuitMenu" style="stroke:#181818;stroke-width:1.0;"/><polygon fill="none" points="1067.68,266.37,1068.1297,285.3383,1079.4207,281.2749,1067.68,266.37" style="stroke:#181818;stroke-width:1.0;"/></g><!--link QuitMenu to QuitOption--><g id="link_QuitMenu_QuitOption"><path codeLine="30" d="M1047.0409,471.101 C1030.0309,490.641 1023.4075,498.2527 1006.9175,517.2127 " fill="none" id="QuitMenu-QuitOption" style="stroke:#181818;stroke-width:1.0;"/><polygon fill="#181818" points="1054.92,462.05,1047.9635,463.9491,1047.0409,471.101,1053.9975,469.2018,1054.92,462.05" style="stroke:#181818;stroke-width:1.0;"/><polygon fill="#181818" points="1002.98,521.74,1011.9044,517.5741,1006.2612,517.9673,1005.868,512.3241,1002.98,521.74" style="stroke:#181818;stroke-width:1.0;"/></g><!--reverse link QuitMenu to DynamicIterativeMenu--><g id="link_QuitMenu_DynamicIterativeMenu"><path codeLine="40" d="M1124.74,479.8879 C1127.38,499.4279 1127.84,502.78 1130.4,521.74 " fill="none" id="QuitMenu-backto-DynamicIterativeMenu" style="stroke:#181818;stroke-width:1.0;"/><polygon fill="none" points="1122.33,462.05,1118.7941,480.6913,1130.686,479.0846,1122.33,462.05" style="stroke:#181818;stroke-width:1.0;"/></g><!--reverse link DynamicIterativeMenu to StaticIterativeMenu--><g id="link_DynamicIterativeMenu_StaticIterativeMenu"><path codeLine="49" d="M1138.27,658.12 C1138.27,677.34 1138.27,680.72 1138.27,699.94 " fill="none" id="DynamicIterativeMenu-backto-StaticIterativeMenu" style="stroke:#181818;stroke-width:1.0;"/><polygon fill="none" points="1138.27,640.12,1132.27,658.12,1144.27,658.12,1138.27,640.12" style="stroke:#181818;stroke-width:1.0;"/></g><!--link Option to Console--><g id="link_Option_Console"><path codeLine="60" d="M853.21,453.03 C821.64,488.21 787.1066,526.6838 763.9166,552.5338 " fill="none" id="Option-to-Console" style="stroke:#181818;stroke-width:1.0;stroke-dasharray:7.0,7.0;"/><polygon fill="#181818" points="759.91,557,768.8974,552.9718,763.2489,553.2782,762.9425,547.6296,759.91,557" style="stroke:#181818;stroke-width:1.0;"/></g><!--reverse link Option to QuitOption--><g id="link_Option_QuitOption"><path codeLine="69" d="M924.4511,470.4761 C930.0211,492.4061 931.93,499.92 937.5,521.86 " fill="none" id="Option-backto-QuitOption" style="stroke:#181818;stroke-width:1.0;"/><polygon fill="none" points="920.02,453.03,918.6358,471.9531,930.2665,468.999,920.02,453.03" style="stroke:#181818;stroke-width:1.0;"/></g><!--reverse link Menu to MenuModel--><g id="link_Menu_MenuModel"><path codeLine="78" d="M1108.8849,222.0681 C1144.8749,257.0081 1175.6,287.18 1214.27,326 C1299.9,411.95 1325.5,429.73 1404.27,522 C1454.65,581.01 1507.39,652.83 1542.06,701.63 " fill="none" id="Menu-backto-MenuModel" style="stroke:#181818;stroke-width:1.0;"/><polygon fill="none" points="1095.97,209.53,1104.7055,226.3731,1113.0643,217.7632,1095.97,209.53" style="stroke:#181818;stroke-width:1.0;"/></g><!--link MenuModel to Model--><g id="link_MenuModel_Model"><path codeLine="79" d="M1596.18,816.25 C1621.68,925.9 1660.82,1171.03 1549.27,1326 C1484.67,1415.75 1356.9594,1445.5327 1277.5094,1455.9127 " fill="none" id="MenuModel-to-Model" style="stroke:#181818;stroke-width:1.0;"/><polygon fill="#181818" points="1271.56,1456.69,1281.0023,1459.4904,1276.5179,1456.0423,1279.966,1451.5578,1271.56,1456.69" style="stroke:#181818;stroke-width:1.0;"/></g><!--reverse link QuitMenu to QuitMenuModel--><g id="link_QuitMenu_QuitMenuModel"><path codeLine="87" d="M1210.8885,468.7843 C1288.5285,534.1643 1378.27,633.16 1378.27,758 C1378.27,758 1378.27,758 1378.27,938 C1378.27,1034.39 1386.02,1146.39 1391.35,1212 " fill="none" id="QuitMenu-backto-QuitMenuModel" style="stroke:#181818;stroke-width:1.0;"/><polygon fill="none" points="1197.12,457.19,1207.0237,473.3738,1214.7533,464.1948,1197.12,457.19" style="stroke:#181818;stroke-width:1.0;"/></g><!--link QuitMenuModel to Model--><g id="link_QuitMenuModel_Model"><path codeLine="88" d="M1341.39,1326.05 C1319.5,1348.41 1298.3579,1370.0031 1275.6979,1393.1431 " fill="none" id="QuitMenuModel-to-Model" style="stroke:#181818;stroke-width:1.0;"/><polygon fill="#181818" points="1271.5,1397.43,1280.6548,1393.7983,1274.9983,1393.8576,1274.939,1388.2011,1271.5,1397.43" style="stroke:#181818;stroke-width:1.0;"/></g><!--reverse link DynamicIterativeMenu to DynamicIterativeMenuModel--><g id="link_DynamicIterativeMenu_DynamicIterativeMenuModel"><path codeLine="96" d="M1071.7521,653.6304 C1023.4721,709.5104 969.13,785.38 946.27,878 C917.1,996.23 904.82,1036.79 944.27,1152 C951.62,1173.46 964.74,1194.02 978.73,1211.71 " fill="none" id="DynamicIterativeMenu-backto-DynamicIterativeMenuModel" style="stroke:#181818;stroke-width:1.0;"/><polygon fill="none" points="1083.52,640.01,1067.2119,649.7078,1076.2922,657.5531,1083.52,640.01" style="stroke:#181818;stroke-width:1.0;"/></g><!--link DynamicIterativeMenuModel to Model--><g id="link_DynamicIterativeMenuModel_Model"><path codeLine="97" d="M1085.07,1326.05 C1103.83,1346.75 1121.2919,1366.0132 1141.0119,1387.7832 " fill="none" id="DynamicIterativeMenuModel-to-Model" style="stroke:#181818;stroke-width:1.0;"/><polygon fill="#181818" points="1145.04,1392.23,1141.9624,1382.8743,1141.6832,1388.5243,1136.0333,1388.2451,1145.04,1392.23" style="stroke:#181818;stroke-width:1.0;"/></g><!--link DynamicIterativeMenuModel to PriorizeTaskModelOption--><g id="link_DynamicIterativeMenuModel_PriorizeTaskModelOption"><path codeLine="98" d="M916.18,1318.45 C837.38,1350.78 740.671,1390.4527 667.081,1420.6427 " fill="none" id="DynamicIterativeMenuModel-to-PriorizeTaskModelOption" style="stroke:#181818;stroke-width:1.0;stroke-dasharray:7.0,7.0;"/><polygon fill="#181818" points="661.53,1422.92,671.3747,1423.2048,666.1559,1421.0223,668.3384,1415.8034,661.53,1422.92" style="stroke:#181818;stroke-width:1.0;"/></g><!--reverse link StaticIterativeMenu to StaticIterativeMenuModel--><g id="link_StaticIterativeMenu_StaticIterativeMenuModel"><path codeLine="106" d="M1138.27,836.12 C1138.27,855.94 1138.27,860.06 1138.27,879.74 " fill="none" id="StaticIterativeMenu-backto-StaticIterativeMenuModel" style="stroke:#181818;stroke-width:1.0;"/><polygon fill="none" points="1138.27,818.12,1132.27,836.12,1144.27,836.12,1138.27,818.12" style="stroke:#181818;stroke-width:1.0;"/></g><!--link StaticIterativeMenuModel to Model--><g id="link_StaticIterativeMenuModel_Model"><path codeLine="107" d="M1159.26,994.01 C1165.72,1013.39 1172.2,1035.41 1176.27,1056 C1198.68,1169.41 1205.3725,1297.5618 1207.3925,1379.7118 " fill="none" id="StaticIterativeMenuModel-to-Model" style="stroke:#181818;stroke-width:1.0;"/><polygon fill="#181818" points="1207.54,1385.71,1211.3176,1376.6144,1207.4171,1380.7115,1203.32,1376.811,1207.54,1385.71" style="stroke:#181818;stroke-width:1.0;"/></g><!--link StaticIterativeMenuModel to PriorizeTasksModelOption--><g id="link_StaticIterativeMenuModel_PriorizeTasksModelOption"><path codeLine="108" d="M1111.65,994.32 C1102.16,1014.39 1094.144,1031.3454 1085.064,1050.5554 " fill="none" id="StaticIterativeMenuModel-to-PriorizeTasksModelOption" style="stroke:#181818;stroke-width:1.0;"/><polygon fill="#181818" points="1082.5,1055.98,1089.9624,1049.5525,1084.6367,1051.4595,1082.7297,1046.1338,1082.5,1055.98" style="stroke:#181818;stroke-width:1.0;"/></g><!--reverse link Option to ModelOption--><g id="link_Option_ModelOption"><path codeLine="118" d="M875.7856,469.8985 C834.8456,573.8785 756.16,773.73 715.2,877.77 " fill="none" id="Option-backto-ModelOption" style="stroke:#181818;stroke-width:1.0;"/><polygon fill="none" points="882.38,453.15,870.2028,467.7004,881.3685,472.0967,882.38,453.15" style="stroke:#181818;stroke-width:1.0;"/></g><!--link ModelOption to Model--><g id="link_ModelOption_Model"><path codeLine="119" d="M754.47,996.04 C771.3,1014.05 788.4,1034.78 801.27,1056 C867.41,1165.01 811.25,1232.8 898.27,1326 C964.95,1397.42 1069.9319,1432.0457 1139.4319,1448.5257 " fill="none" id="ModelOption-to-Model" style="stroke:#181818;stroke-width:1.0;"/><polygon fill="#181818" points="1145.27,1449.91,1137.4357,1443.9414,1140.4049,1448.7564,1135.5899,1451.7256,1145.27,1449.91" style="stroke:#181818;stroke-width:1.0;"/></g><!--reverse link ModelOption to UpdateNameModelOption--><g id="link_ModelOption_UpdateNameModelOption"><path codeLine="125" d="M587.5909,973.4217 C519.9609,996.5817 441.27,1024.25 358.27,1056 C352.57,1058.18 346.73,1060.46 340.85,1062.78 " fill="none" id="ModelOption-backto-UpdateNameModelOption" style="stroke:#181818;stroke-width:1.0;"/><polygon fill="none" points="604.62,967.59,585.647,967.7453,589.5347,979.098,604.62,967.59" style="stroke:#181818;stroke-width:1.0;"/></g><!--reverse link ModelOption to ShowDetailsModelOption--><g id="link_ModelOption_ShowDetailsModelOption"><path codeLine="131" d="M599.5541,1006.9085 C573.2141,1026.4885 558.62,1037.33 533.58,1055.95 " fill="none" id="ModelOption-backto-ShowDetailsModelOption" style="stroke:#181818;stroke-width:1.0;"/><polygon fill="none" points="614,996.17,595.9746,1002.0932,603.1336,1011.7238,614,996.17" style="stroke:#181818;stroke-width:1.0;"/></g><!--reverse link ModelOption to ShowTasksModelOption--><g id="link_ModelOption_ShowTasksModelOption"><path codeLine="137" d="M692.27,1014.17 C692.27,1033.75 692.27,1037.33 692.27,1055.95 " fill="none" id="ModelOption-backto-ShowTasksModelOption" style="stroke:#181818;stroke-width:1.0;"/><polygon fill="none" points="692.27,996.17,686.27,1014.17,698.27,1014.17,692.27,996.17" style="stroke:#181818;stroke-width:1.0;"/></g><!--reverse link ModelOption to PriorizeTaskModelOption--><g id="link_ModelOption_PriorizeTaskModelOption"><path codeLine="145" d="M586.6504,944.6664 C443.8704,955.3764 189.03,983.63 130.27,1056 C6,1209.07 308.55,1359.3 471.18,1426.04 " fill="none" id="ModelOption-backto-PriorizeTaskModelOption" style="stroke:#181818;stroke-width:1.0;"/><polygon fill="none" points="604.6,943.32,586.2016,938.6832,587.0992,950.6496,604.6,943.32" style="stroke:#181818;stroke-width:1.0;"/></g><!--reverse link ModelOption to PriorizeTasksModelOption--><g id="link_ModelOption_PriorizeTasksModelOption"><path codeLine="152" d="M796.3745,984.6746 C851.0145,1009.1746 905,1033.38 961.59,1058.75 " fill="none" id="ModelOption-backto-PriorizeTasksModelOption" style="stroke:#181818;stroke-width:1.0;"/><polygon fill="none" points="779.95,977.31,793.9196,990.1494,798.8293,979.1997,779.95,977.31" style="stroke:#181818;stroke-width:1.0;"/></g><!--link PriorizeTasksModelOption to DynamicIterativeMenuModel--><g id="link_PriorizeTasksModelOption_DynamicIterativeMenuModel"><path codeLine="153" d="M1052.75,1152.15 C1049.78,1170.76 1047.2958,1186.385 1044.1958,1205.805 " fill="none" id="PriorizeTasksModelOption-to-DynamicIterativeMenuModel" style="stroke:#181818;stroke-width:1.0;stroke-dasharray:7.0,7.0;"/><polygon fill="#181818" points="1043.25,1211.73,1048.6187,1203.4731,1044.0382,1206.7925,1040.7187,1202.212,1043.25,1211.73" style="stroke:#181818;stroke-width:1.0;"/></g><!--SRC=[pLRBRjim4BppAmZxOBUkyWL13asA8a3Z9d2Aea01Wv4MCH4zN95gagR-z_8jKYBj0F6XFadBrN9ck3ickMEy9Jd7UKaOmrTGTtZwXTvl-0yeo-Rn1M7nop2dl0HiNfejfqtDa7fTu5myyxRBUTFELTuxiq1h3hBuN0Uc-8MOxNQO0U-sNtMXjKiWHQ5ZwxdUn2x04-GT1xjemnl2ulbv2QGTbC_mOqivkBSMYDdDrLC9jm8Xo8zsIEdnFilEy6GnmJfP1qzEpl2vADwKW109LRpfA4yg-KiicaBxzPicD1gAUDKKK8woA9CeFcdP2Xktb4x_Pfc3YHnUnVJ60pWWTl5Sauhcb_9OEVqD2PA7UFLzuRBT2PlQ_Y6_Xh0WvbWeSZ6e8puhBjR-Dpex59LPiOe0HcWsmudpqc53wPhM3y4u7vnV3-bWb1TcbBODethiTiXi5Wn6Fmy1b1KfgwQsO8nKHGnFmaeMW_wUUm1SRrjHX3vAuvdsDuPwhrDnJ1YUd2uR8_jwsJY1nNDVwUndxRwP62RdpwJ6baWbLs8ir49gglsHTFLHZqxEf8wXq5uEWW-W1r-z5VwuPyFf2pP38U0HdrYxUzmiimIlvDV7vvYUooG8b2RNwv3EaSDqtTAcfN_Wbh073vDLBs89ddZVAT-ikZiPNVTDaf3IIqvLFRweCGzEUPsMAycuLtHlYYye2nJrdC9W73ggbowLgE1p2r07GgW_WPGO7_0h7NQAxu6htTOZS_Cn-u16a_LjMn0EIrA1dwOQOqMhhRZHkREFfjhJzaWc3pZmw5s0Iu6ERk2QUDCyNW0dj6G7aSPpZmarleEFTTWwQQJ3p6FZ73UnHfbmZJZGH784QoOW5V2qfx_L-klm7t2sr9ng3fSrvSAiAZ7Q0mO3kHLwSvzp5xIt2Pzqa2HaQUJfFmbdF9QwDYkj_iUo0sUreWAOHrAqm9YzqCaDxQa8fvLpDfV9bf1m4zFISo-aS2gE_m00]--></g></svg>